<?xml version="1.0" encoding="UTF-8"?>
<svg xmlns="http://www.w3.org/2000/svg" xmlns:xlink="http://www.w3.org/1999/xlink" width="160px" height="120px" viewBox="0 0 160 120" version="1.1">
<defs>
<linearGradient id="linear0" gradientUnits="userSpaceOnUse" x1="-102.120598" y1="-471.710388" x2="-102.120598" y2="-365.878387" gradientTransform="matrix(0.792,0,0,-0.792,160.816003,-273.732031)">
<stop offset="0" style="stop-color:rgb(12.54902%,45.882353%,73.72549%);stop-opacity:1;"/>
<stop offset="1" style="stop-color:rgb(16.078431%,66.666667%,88.235294%);stop-opacity:1;"/>
</linearGradient>
<linearGradient id="linear1" gradientUnits="userSpaceOnUse" x1="-147.090302" y1="-471.710388" x2="-147.090302" y2="-365.878387" gradientTransform="matrix(0.792,0,0,-0.792,160.816003,-273.732031)">
<stop offset="0" style="stop-color:rgb(3.921569%,41.568627%,65.882353%);stop-opacity:1;"/>
<stop offset="1" style="stop-color:rgb(8.627451%,60%,78.431373%);stop-opacity:1;"/>
</linearGradient>
<linearGradient id="linear2" gradientUnits="userSpaceOnUse" x1="-117.173798" y1="-471.710388" x2="-117.173798" y2="-365.878387" gradientTransform="matrix(0.792,0,0,-0.792,160.816003,-273.732031)">
<stop offset="0" style="stop-color:rgb(12.54902%,45.882353%,73.72549%);stop-opacity:1;"/>
<stop offset="1" style="stop-color:rgb(16.078431%,66.666667%,88.235294%);stop-opacity:1;"/>
</linearGradient>
<linearGradient id="linear3" gradientUnits="userSpaceOnUse" x1="-87.164101" y1="-471.710388" x2="-87.164101" y2="-365.878387" gradientTransform="matrix(0.792,0,0,-0.792,160.816003,-273.732031)">
<stop offset="0" style="stop-color:rgb(3.921569%,41.568627%,65.882353%);stop-opacity:1;"/>
<stop offset="1" style="stop-color:rgb(8.627451%,60%,78.431373%);stop-opacity:1;"/>
</linearGradient>
<linearGradient id="linear4" gradientUnits="userSpaceOnUse" x1="-57.245098" y1="-471.710388" x2="-57.245098" y2="-365.878387" gradientTransform="matrix(0.792,0,0,-0.792,160.816003,-273.732031)">
<stop offset="0" style="stop-color:rgb(12.54902%,45.882353%,73.72549%);stop-opacity:1;"/>
<stop offset="1" style="stop-color:rgb(16.078431%,66.666667%,88.235294%);stop-opacity:1;"/>
</linearGradient>
<clipPath id="clip1">
  <path d="M 46 33 L 115 33 L 115 86 L 46 86 Z M 46 33 "/>
</clipPath>
<clipPath id="clip2">
  <path d="M 113.847656 59.496094 C 112.960938 56.980469 113.253906 52.6875 112.8125 52.09375 C 110 48.242188 99.925781 47.652344 95.335938 42.613281 C 96.078125 40.097656 94.449219 38.171875 92.820312 36.542969 C 90.300781 34.765625 86.898438 35.507812 84.230469 36.246094 C 81.269531 35.65625 78.453125 34.46875 75.492188 33.730469 C 68.976562 32.988281 62.460938 37.582031 62.460938 37.582031 C 57.722656 40.542969 50.46875 46.761719 46.910156 50.316406 C 47.800781 50.464844 48.6875 49.722656 49.726562 49.722656 L 56.539062 47.945312 C 53.726562 50.316406 47.800781 54.316406 46.023438 57.574219 C 48.097656 56.832031 52.539062 54.460938 54.761719 54.167969 C 52.835938 55.796875 48.835938 59.054688 47.503906 61.125 C 47.652344 61.273438 47.503906 61.421875 47.503906 61.570312 C 49.132812 60.683594 53.132812 58.3125 55.058594 58.164062 C 53.132812 60.089844 49.726562 63.941406 48.984375 66.457031 C 50.613281 65.421875 54.761719 63.199219 56.539062 62.605469 C 56.09375 63.644531 55.207031 64.382812 54.613281 65.273438 C 53.726562 66.605469 51.796875 68.234375 51.796875 69.863281 C 53.28125 68.53125 55.058594 67.347656 56.835938 66.457031 C 56.09375 68.085938 54.613281 69.421875 54.167969 71.492188 C 55.351562 70.308594 57.574219 69.714844 59.054688 69.269531 L 58.90625 69.421875 C 58.757812 69.566406 57.128906 70.75 55.945312 72.085938 C 56.980469 72.085938 56.242188 71.9375 57.574219 72.230469 L 58.316406 72.230469 C 58.019531 72.382812 57.574219 72.675781 57.128906 72.824219 C 56.539062 73.121094 55.796875 73.566406 55.207031 73.863281 C 58.019531 77.414062 61.425781 80.378906 65.421875 82.300781 C 70.605469 84.820312 76.234375 85.710938 82.007812 84.96875 C 82.007812 84.671875 81.859375 84.375 81.714844 83.933594 C 81.566406 83.488281 81.414062 83.191406 81.414062 82.746094 C 83.34375 79.191406 82.308594 72.972656 87.339844 70.457031 C 90.746094 68.679688 91.042969 67.789062 94.894531 68.53125 C 96.964844 68.972656 101.558594 70.457031 103.628906 70.011719 C 105.554688 68.972656 106.589844 68.382812 108.371094 67.199219 C 110.445312 67.644531 111.183594 67.347656 111.925781 66.308594 C 111.183594 67.347656 113.253906 62.460938 114.148438 60.683594 Z M 113.847656 59.496094 "/>
</clipPath>
<clipPath id="clip3">
  <path d="M 46 33 L 57 33 L 57 86 L 46 86 Z M 46 33 "/>
</clipPath>
<clipPath id="clip4">
  <path d="M 113.847656 59.496094 C 112.960938 56.980469 113.253906 52.6875 112.8125 52.09375 C 110 48.242188 99.925781 47.652344 95.335938 42.613281 C 96.078125 40.097656 94.449219 38.171875 92.820312 36.542969 C 90.300781 34.765625 86.898438 35.507812 84.230469 36.246094 C 81.269531 35.65625 78.453125 34.46875 75.492188 33.730469 C 68.976562 32.988281 62.460938 37.582031 62.460938 37.582031 C 57.722656 40.542969 50.46875 46.761719 46.910156 50.316406 C 47.800781 50.464844 48.6875 49.722656 49.726562 49.722656 L 56.539062 47.945312 C 53.726562 50.316406 47.800781 54.316406 46.023438 57.574219 C 48.097656 56.832031 52.539062 54.460938 54.761719 54.167969 C 52.835938 55.796875 48.835938 59.054688 47.503906 61.125 C 47.652344 61.273438 47.503906 61.421875 47.503906 61.570312 C 49.132812 60.683594 53.132812 58.3125 55.058594 58.164062 C 53.132812 60.089844 49.726562 63.941406 48.984375 66.457031 C 50.613281 65.421875 54.761719 63.199219 56.539062 62.605469 C 56.09375 63.644531 55.207031 64.382812 54.613281 65.273438 C 53.726562 66.605469 51.796875 68.234375 51.796875 69.863281 C 53.28125 68.53125 55.058594 67.347656 56.835938 66.457031 C 56.09375 68.085938 54.613281 69.421875 54.167969 71.492188 C 55.351562 70.308594 57.574219 69.714844 59.054688 69.269531 L 58.90625 69.421875 C 58.757812 69.566406 57.128906 70.75 55.945312 72.085938 C 56.980469 72.085938 56.242188 71.9375 57.574219 72.230469 L 58.316406 72.230469 C 58.019531 72.382812 57.574219 72.675781 57.128906 72.824219 C 56.539062 73.121094 55.796875 73.566406 55.207031 73.863281 C 58.019531 77.414062 61.425781 80.378906 65.421875 82.300781 C 70.605469 84.820312 76.234375 85.710938 82.007812 84.96875 C 82.007812 84.671875 81.859375 84.375 81.714844 83.933594 C 81.566406 83.488281 81.414062 83.191406 81.414062 82.746094 C 83.34375 79.191406 82.308594 72.972656 87.339844 70.457031 C 90.746094 68.679688 91.042969 67.789062 94.894531 68.53125 C 96.964844 68.972656 101.558594 70.457031 103.628906 70.011719 C 105.554688 68.972656 106.589844 68.382812 108.371094 67.199219 C 110.445312 67.644531 111.183594 67.347656 111.925781 66.308594 C 111.183594 67.347656 113.253906 62.460938 114.148438 60.683594 Z M 113.847656 59.496094 "/>
</clipPath>
<clipPath id="clip5">
  <path d="M 56 33 L 81 33 L 81 86 L 56 86 Z M 56 33 "/>
</clipPath>
<clipPath id="clip6">
  <path d="M 113.847656 59.496094 C 112.960938 56.980469 113.253906 52.6875 112.8125 52.09375 C 110 48.242188 99.925781 47.652344 95.335938 42.613281 C 96.078125 40.097656 94.449219 38.171875 92.820312 36.542969 C 90.300781 34.765625 86.898438 35.507812 84.230469 36.246094 C 81.269531 35.65625 78.453125 34.46875 75.492188 33.730469 C 68.976562 32.988281 62.460938 37.582031 62.460938 37.582031 C 57.722656 40.542969 50.46875 46.761719 46.910156 50.316406 C 47.800781 50.464844 48.6875 49.722656 49.726562 49.722656 L 56.539062 47.945312 C 53.726562 50.316406 47.800781 54.316406 46.023438 57.574219 C 48.097656 56.832031 52.539062 54.460938 54.761719 54.167969 C 52.835938 55.796875 48.835938 59.054688 47.503906 61.125 C 47.652344 61.273438 47.503906 61.421875 47.503906 61.570312 C 49.132812 60.683594 53.132812 58.3125 55.058594 58.164062 C 53.132812 60.089844 49.726562 63.941406 48.984375 66.457031 C 50.613281 65.421875 54.761719 63.199219 56.539062 62.605469 C 56.09375 63.644531 55.207031 64.382812 54.613281 65.273438 C 53.726562 66.605469 51.796875 68.234375 51.796875 69.863281 C 53.28125 68.53125 55.058594 67.347656 56.835938 66.457031 C 56.09375 68.085938 54.613281 69.421875 54.167969 71.492188 C 55.351562 70.308594 57.574219 69.714844 59.054688 69.269531 L 58.90625 69.421875 C 58.757812 69.566406 57.128906 70.75 55.945312 72.085938 C 56.980469 72.085938 56.242188 71.9375 57.574219 72.230469 L 58.316406 72.230469 C 58.019531 72.382812 57.574219 72.675781 57.128906 72.824219 C 56.539062 73.121094 55.796875 73.566406 55.207031 73.863281 C 58.019531 77.414062 61.425781 80.378906 65.421875 82.300781 C 70.605469 84.820312 76.234375 85.710938 82.007812 84.96875 C 82.007812 84.671875 81.859375 84.375 81.714844 83.933594 C 81.566406 83.488281 81.414062 83.191406 81.414062 82.746094 C 83.34375 79.191406 82.308594 72.972656 87.339844 70.457031 C 90.746094 68.679688 91.042969 67.789062 94.894531 68.53125 C 96.964844 68.972656 101.558594 70.457031 103.628906 70.011719 C 105.554688 68.972656 106.589844 68.382812 108.371094 67.199219 C 110.445312 67.644531 111.183594 67.347656 111.925781 66.308594 C 111.183594 67.347656 113.253906 62.460938 114.148438 60.683594 Z M 113.847656 59.496094 "/>
</clipPath>
<clipPath id="clip7">
  <path d="M 80 33 L 104 33 L 104 86 L 80 86 Z M 80 33 "/>
</clipPath>
<clipPath id="clip8">
  <path d="M 113.847656 59.496094 C 112.960938 56.980469 113.253906 52.6875 112.8125 52.09375 C 110 48.242188 99.925781 47.652344 95.335938 42.613281 C 96.078125 40.097656 94.449219 38.171875 92.820312 36.542969 C 90.300781 34.765625 86.898438 35.507812 84.230469 36.246094 C 81.269531 35.65625 78.453125 34.46875 75.492188 33.730469 C 68.976562 32.988281 62.460938 37.582031 62.460938 37.582031 C 57.722656 40.542969 50.46875 46.761719 46.910156 50.316406 C 47.800781 50.464844 48.6875 49.722656 49.726562 49.722656 L 56.539062 47.945312 C 53.726562 50.316406 47.800781 54.316406 46.023438 57.574219 C 48.097656 56.832031 52.539062 54.460938 54.761719 54.167969 C 52.835938 55.796875 48.835938 59.054688 47.503906 61.125 C 47.652344 61.273438 47.503906 61.421875 47.503906 61.570312 C 49.132812 60.683594 53.132812 58.3125 55.058594 58.164062 C 53.132812 60.089844 49.726562 63.941406 48.984375 66.457031 C 50.613281 65.421875 54.761719 63.199219 56.539062 62.605469 C 56.09375 63.644531 55.207031 64.382812 54.613281 65.273438 C 53.726562 66.605469 51.796875 68.234375 51.796875 69.863281 C 53.28125 68.53125 55.058594 67.347656 56.835938 66.457031 C 56.09375 68.085938 54.613281 69.421875 54.167969 71.492188 C 55.351562 70.308594 57.574219 69.714844 59.054688 69.269531 L 58.90625 69.421875 C 58.757812 69.566406 57.128906 70.75 55.945312 72.085938 C 56.980469 72.085938 56.242188 71.9375 57.574219 72.230469 L 58.316406 72.230469 C 58.019531 72.382812 57.574219 72.675781 57.128906 72.824219 C 56.539062 73.121094 55.796875 73.566406 55.207031 73.863281 C 58.019531 77.414062 61.425781 80.378906 65.421875 82.300781 C 70.605469 84.820312 76.234375 85.710938 82.007812 84.96875 C 82.007812 84.671875 81.859375 84.375 81.714844 83.933594 C 81.566406 83.488281 81.414062 83.191406 81.414062 82.746094 C 83.34375 79.191406 82.308594 72.972656 87.339844 70.457031 C 90.746094 68.679688 91.042969 67.789062 94.894531 68.53125 C 96.964844 68.972656 101.558594 70.457031 103.628906 70.011719 C 105.554688 68.972656 106.589844 68.382812 108.371094 67.199219 C 110.445312 67.644531 111.183594 67.347656 111.925781 66.308594 C 111.183594 67.347656 113.253906 62.460938 114.148438 60.683594 Z M 113.847656 59.496094 "/>
</clipPath>
<clipPath id="clip9">
  <path d="M 103 33 L 115 33 L 115 86 L 103 86 Z M 103 33 "/>
</clipPath>
<clipPath id="clip10">
  <path d="M 113.847656 59.496094 C 112.960938 56.980469 113.253906 52.6875 112.8125 52.09375 C 110 48.242188 99.925781 47.652344 95.335938 42.613281 C 96.078125 40.097656 94.449219 38.171875 92.820312 36.542969 C 90.300781 34.765625 86.898438 35.507812 84.230469 36.246094 C 81.269531 35.65625 78.453125 34.46875 75.492188 33.730469 C 68.976562 32.988281 62.460938 37.582031 62.460938 37.582031 C 57.722656 40.542969 50.46875 46.761719 46.910156 50.316406 C 47.800781 50.464844 48.6875 49.722656 49.726562 49.722656 L 56.539062 47.945312 C 53.726562 50.316406 47.800781 54.316406 46.023438 57.574219 C 48.097656 56.832031 52.539062 54.460938 54.761719 54.167969 C 52.835938 55.796875 48.835938 59.054688 47.503906 61.125 C 47.652344 61.273438 47.503906 61.421875 47.503906 61.570312 C 49.132812 60.683594 53.132812 58.3125 55.058594 58.164062 C 53.132812 60.089844 49.726562 63.941406 48.984375 66.457031 C 50.613281 65.421875 54.761719 63.199219 56.539062 62.605469 C 56.09375 63.644531 55.207031 64.382812 54.613281 65.273438 C 53.726562 66.605469 51.796875 68.234375 51.796875 69.863281 C 53.28125 68.53125 55.058594 67.347656 56.835938 66.457031 C 56.09375 68.085938 54.613281 69.421875 54.167969 71.492188 C 55.351562 70.308594 57.574219 69.714844 59.054688 69.269531 L 58.90625 69.421875 C 58.757812 69.566406 57.128906 70.75 55.945312 72.085938 C 56.980469 72.085938 56.242188 71.9375 57.574219 72.230469 L 58.316406 72.230469 C 58.019531 72.382812 57.574219 72.675781 57.128906 72.824219 C 56.539062 73.121094 55.796875 73.566406 55.207031 73.863281 C 58.019531 77.414062 61.425781 80.378906 65.421875 82.300781 C 70.605469 84.820312 76.234375 85.710938 82.007812 84.96875 C 82.007812 84.671875 81.859375 84.375 81.714844 83.933594 C 81.566406 83.488281 81.414062 83.191406 81.414062 82.746094 C 83.34375 79.191406 82.308594 72.972656 87.339844 70.457031 C 90.746094 68.679688 91.042969 67.789062 94.894531 68.53125 C 96.964844 68.972656 101.558594 70.457031 103.628906 70.011719 C 105.554688 68.972656 106.589844 68.382812 108.371094 67.199219 C 110.445312 67.644531 111.183594 67.347656 111.925781 66.308594 C 111.183594 67.347656 113.253906 62.460938 114.148438 60.683594 Z M 113.847656 59.496094 "/>
</clipPath>
</defs>
<g id="surface1">
<path style=" stroke:none;fill-rule:nonzero;fill:url(#linear0);" d="M 103.628906 16.109375 L 103.628906 15.960938 L 103.628906 16.109375 L 103.480469 15.960938 L 103.480469 16.109375 L 79.9375 25.4375 L 56.242188 16.109375 L 56.242188 15.960938 L 56.09375 16.109375 L 56.09375 15.960938 L 56.09375 16.109375 L 32.398438 25.585938 L 32.398438 99.777344 L 56.09375 90.746094 L 79.9375 99.777344 L 103.628906 90.746094 L 127.472656 99.777344 L 127.472656 25.585938 Z M 103.628906 16.109375 "/>
<path style=" stroke:none;fill-rule:nonzero;fill:url(#linear1);" d="M 32.398438 25.585938 L 32.398438 99.777344 L 56.242188 90.746094 L 56.242188 15.960938 Z M 32.398438 25.585938 "/>
<path style=" stroke:none;fill-rule:nonzero;fill:url(#linear2);" d="M 79.9375 25.585938 L 79.9375 99.777344 L 56.09375 90.746094 L 56.09375 15.960938 Z M 79.9375 25.585938 "/>
<path style=" stroke:none;fill-rule:nonzero;fill:url(#linear3);" d="M 79.9375 25.585938 L 79.9375 99.777344 L 103.628906 90.746094 L 103.628906 15.960938 Z M 79.9375 25.585938 "/>
<path style=" stroke:none;fill-rule:nonzero;fill:url(#linear4);" d="M 127.472656 25.585938 L 127.472656 99.777344 L 103.480469 90.746094 L 103.480469 15.960938 Z M 127.472656 25.585938 "/>
<g clip-path="url(#clip1)" clip-rule="nonzero">
<g clip-path="url(#clip2)" clip-rule="nonzero">
<path style=" stroke:none;fill-rule:nonzero;fill:rgb(100%,100%,100%);fill-opacity:1;" d="M 79.9375 29.878906 C 104.308594 29.878906 124.066406 43.273438 124.066406 59.792969 C 124.066406 76.316406 104.308594 89.707031 79.9375 89.707031 C 55.566406 89.707031 35.804688 76.316406 35.804688 59.792969 C 35.804688 43.273438 55.566406 29.878906 79.9375 29.878906 Z M 79.9375 29.878906 "/>
</g>
</g>
<g clip-path="url(#clip3)" clip-rule="nonzero">
<g clip-path="url(#clip4)" clip-rule="nonzero">
<path style=" stroke:none;fill-rule:nonzero;fill:rgb(94.901961%,94.901961%,94.901961%);fill-opacity:1;" d="M 32.992188 26.917969 L 32.992188 102 L 56.539062 92.667969 L 56.539062 17.441406 Z M 32.992188 26.917969 "/>
</g>
</g>
<g clip-path="url(#clip5)" clip-rule="nonzero">
<g clip-path="url(#clip6)" clip-rule="nonzero">
<path style=" stroke:none;fill-rule:nonzero;fill:rgb(100%,100%,100%);fill-opacity:1;" d="M 80.085938 26.917969 L 80.085938 102 L 56.390625 92.667969 L 56.390625 17.441406 Z M 80.085938 26.917969 "/>
</g>
</g>
<g clip-path="url(#clip7)" clip-rule="nonzero">
<g clip-path="url(#clip8)" clip-rule="nonzero">
<path style=" stroke:none;fill-rule:nonzero;fill:rgb(94.901961%,94.901961%,94.901961%);fill-opacity:1;" d="M 80.085938 26.917969 L 80.085938 102 L 103.480469 92.667969 L 103.480469 17.441406 Z M 80.085938 26.917969 "/>
</g>
</g>
<g clip-path="url(#clip9)" clip-rule="nonzero">
<g clip-path="url(#clip10)" clip-rule="nonzero">
<path style=" stroke:none;fill-rule:nonzero;fill:rgb(100%,100%,100%);fill-opacity:1;" d="M 127.175781 26.917969 L 127.175781 102 L 103.480469 92.667969 L 103.480469 17.441406 Z M 127.175781 26.917969 "/>
</g>
</g>
</g>
</svg>
