<?xml version="1.0" encoding="UTF-8"?>
<svg xmlns="http://www.w3.org/2000/svg" xmlns:xlink="http://www.w3.org/1999/xlink" width="533px" height="400px" viewBox="0 0 533 400" version="1.1">
<defs>
<linearGradient id="linear0" gradientUnits="userSpaceOnUse" x1="-102.120598" y1="-471.710388" x2="-102.120598" y2="-365.878387" gradientTransform="matrix(2.63835,0,0,-2.64,535.718311,-912.440104)">
<stop offset="0" style="stop-color:rgb(12.54902%,45.882353%,73.72549%);stop-opacity:1;"/>
<stop offset="1" style="stop-color:rgb(16.078431%,66.666667%,88.235294%);stop-opacity:1;"/>
</linearGradient>
<linearGradient id="linear1" gradientUnits="userSpaceOnUse" x1="-147.090302" y1="-471.710388" x2="-147.090302" y2="-365.878387" gradientTransform="matrix(2.63835,0,0,-2.64,535.718311,-912.440104)">
<stop offset="0" style="stop-color:rgb(3.921569%,41.568627%,65.882353%);stop-opacity:1;"/>
<stop offset="1" style="stop-color:rgb(8.627451%,60%,78.431373%);stop-opacity:1;"/>
</linearGradient>
<linearGradient id="linear2" gradientUnits="userSpaceOnUse" x1="-117.173798" y1="-471.710388" x2="-117.173798" y2="-365.878387" gradientTransform="matrix(2.63835,0,0,-2.64,535.718311,-912.440104)">
<stop offset="0" style="stop-color:rgb(12.54902%,45.882353%,73.72549%);stop-opacity:1;"/>
<stop offset="1" style="stop-color:rgb(16.078431%,66.666667%,88.235294%);stop-opacity:1;"/>
</linearGradient>
<linearGradient id="linear3" gradientUnits="userSpaceOnUse" x1="-87.164101" y1="-471.710388" x2="-87.164101" y2="-365.878387" gradientTransform="matrix(2.63835,0,0,-2.64,535.718311,-912.440104)">
<stop offset="0" style="stop-color:rgb(3.921569%,41.568627%,65.882353%);stop-opacity:1;"/>
<stop offset="1" style="stop-color:rgb(8.627451%,60%,78.431373%);stop-opacity:1;"/>
</linearGradient>
<linearGradient id="linear4" gradientUnits="userSpaceOnUse" x1="-57.245098" y1="-471.710388" x2="-57.245098" y2="-365.878387" gradientTransform="matrix(2.63835,0,0,-2.64,535.718311,-912.440104)">
<stop offset="0" style="stop-color:rgb(12.54902%,45.882353%,73.72549%);stop-opacity:1;"/>
<stop offset="1" style="stop-color:rgb(16.078431%,66.666667%,88.235294%);stop-opacity:1;"/>
</linearGradient>
<clipPath id="clip1">
  <path d="M 153 112 L 381 112 L 381 285 L 153 285 Z M 153 112 "/>
</clipPath>
<clipPath id="clip2">
  <path d="M 379.257812 198.328125 C 376.300781 189.933594 377.28125 175.621094 375.808594 173.644531 C 366.433594 160.8125 332.882812 158.835938 317.59375 142.050781 C 320.058594 133.660156 314.632812 127.242188 309.210938 121.8125 C 300.816406 115.890625 289.476562 118.355469 280.59375 120.824219 C 270.726562 118.851562 261.351562 114.902344 251.488281 112.433594 C 229.78125 109.964844 208.074219 125.269531 208.074219 125.269531 C 192.289062 135.140625 168.117188 155.875 156.277344 167.722656 C 159.238281 168.214844 162.195312 165.746094 165.652344 165.746094 L 188.34375 159.824219 C 178.972656 167.722656 159.238281 181.050781 153.320312 191.910156 C 160.222656 189.441406 175.023438 181.542969 182.421875 180.554688 C 176.011719 185.988281 162.6875 196.84375 158.25 203.753906 C 158.742188 204.25 158.25 204.742188 158.25 205.234375 C 163.675781 202.273438 176.996094 194.375 183.410156 193.882812 C 176.996094 200.296875 165.652344 213.132812 163.183594 221.527344 C 168.609375 218.070312 182.421875 210.667969 188.34375 208.6875 C 186.863281 212.144531 183.90625 214.613281 181.929688 217.574219 C 178.972656 222.019531 172.554688 227.445312 172.554688 232.878906 C 177.488281 228.433594 183.410156 224.488281 189.328125 221.527344 C 186.863281 226.953125 181.929688 231.398438 180.449219 238.308594 C 184.394531 234.359375 191.796875 232.382812 196.730469 230.902344 L 196.238281 231.398438 C 195.742188 231.890625 190.316406 235.839844 186.371094 240.28125 C 189.820312 240.28125 187.351562 239.789062 191.796875 240.773438 L 194.261719 240.773438 C 193.273438 241.273438 191.796875 242.253906 190.316406 242.75 C 188.34375 243.738281 185.875 245.21875 183.90625 246.207031 C 193.273438 258.050781 204.621094 267.925781 217.941406 274.339844 C 235.207031 282.734375 253.953125 285.699219 273.191406 283.230469 C 273.191406 282.242188 272.699219 281.253906 272.210938 279.773438 C 271.71875 278.292969 271.214844 277.304688 271.214844 275.824219 C 277.632812 263.976562 274.183594 243.242188 290.949219 234.851562 C 302.300781 228.933594 303.28125 225.964844 316.117188 228.433594 C 323.015625 229.914062 338.316406 234.851562 345.214844 233.371094 C 351.632812 229.914062 355.082031 227.945312 361.007812 223.996094 C 367.917969 225.476562 370.382812 224.488281 372.851562 221.03125 C 370.382812 224.488281 377.28125 208.199219 380.25 202.273438 Z M 379.257812 198.328125 "/>
</clipPath>
<clipPath id="clip3">
  <path d="M 153 112 L 189 112 L 189 285 L 153 285 Z M 153 112 "/>
</clipPath>
<clipPath id="clip4">
  <path d="M 379.257812 198.328125 C 376.300781 189.933594 377.28125 175.621094 375.808594 173.644531 C 366.433594 160.8125 332.882812 158.835938 317.59375 142.050781 C 320.058594 133.660156 314.632812 127.242188 309.210938 121.8125 C 300.816406 115.890625 289.476562 118.355469 280.59375 120.824219 C 270.726562 118.851562 261.351562 114.902344 251.488281 112.433594 C 229.78125 109.964844 208.074219 125.269531 208.074219 125.269531 C 192.289062 135.140625 168.117188 155.875 156.277344 167.722656 C 159.238281 168.214844 162.195312 165.746094 165.652344 165.746094 L 188.34375 159.824219 C 178.972656 167.722656 159.238281 181.050781 153.320312 191.910156 C 160.222656 189.441406 175.023438 181.542969 182.421875 180.554688 C 176.011719 185.988281 162.6875 196.84375 158.25 203.753906 C 158.742188 204.25 158.25 204.742188 158.25 205.234375 C 163.675781 202.273438 176.996094 194.375 183.410156 193.882812 C 176.996094 200.296875 165.652344 213.132812 163.183594 221.527344 C 168.609375 218.070312 182.421875 210.667969 188.34375 208.6875 C 186.863281 212.144531 183.90625 214.613281 181.929688 217.574219 C 178.972656 222.019531 172.554688 227.445312 172.554688 232.878906 C 177.488281 228.433594 183.410156 224.488281 189.328125 221.527344 C 186.863281 226.953125 181.929688 231.398438 180.449219 238.308594 C 184.394531 234.359375 191.796875 232.382812 196.730469 230.902344 L 196.238281 231.398438 C 195.742188 231.890625 190.316406 235.839844 186.371094 240.28125 C 189.820312 240.28125 187.351562 239.789062 191.796875 240.773438 L 194.261719 240.773438 C 193.273438 241.273438 191.796875 242.253906 190.316406 242.75 C 188.34375 243.738281 185.875 245.21875 183.90625 246.207031 C 193.273438 258.050781 204.621094 267.925781 217.941406 274.339844 C 235.207031 282.734375 253.953125 285.699219 273.191406 283.230469 C 273.191406 282.242188 272.699219 281.253906 272.210938 279.773438 C 271.71875 278.292969 271.214844 277.304688 271.214844 275.824219 C 277.632812 263.976562 274.183594 243.242188 290.949219 234.851562 C 302.300781 228.933594 303.28125 225.964844 316.117188 228.433594 C 323.015625 229.914062 338.316406 234.851562 345.214844 233.371094 C 351.632812 229.914062 355.082031 227.945312 361.007812 223.996094 C 367.917969 225.476562 370.382812 224.488281 372.851562 221.03125 C 370.382812 224.488281 377.28125 208.199219 380.25 202.273438 Z M 379.257812 198.328125 "/>
</clipPath>
<clipPath id="clip5">
  <path d="M 187 112 L 267 112 L 267 285 L 187 285 Z M 187 112 "/>
</clipPath>
<clipPath id="clip6">
  <path d="M 379.257812 198.328125 C 376.300781 189.933594 377.28125 175.621094 375.808594 173.644531 C 366.433594 160.8125 332.882812 158.835938 317.59375 142.050781 C 320.058594 133.660156 314.632812 127.242188 309.210938 121.8125 C 300.816406 115.890625 289.476562 118.355469 280.59375 120.824219 C 270.726562 118.851562 261.351562 114.902344 251.488281 112.433594 C 229.78125 109.964844 208.074219 125.269531 208.074219 125.269531 C 192.289062 135.140625 168.117188 155.875 156.277344 167.722656 C 159.238281 168.214844 162.195312 165.746094 165.652344 165.746094 L 188.34375 159.824219 C 178.972656 167.722656 159.238281 181.050781 153.320312 191.910156 C 160.222656 189.441406 175.023438 181.542969 182.421875 180.554688 C 176.011719 185.988281 162.6875 196.84375 158.25 203.753906 C 158.742188 204.25 158.25 204.742188 158.25 205.234375 C 163.675781 202.273438 176.996094 194.375 183.410156 193.882812 C 176.996094 200.296875 165.652344 213.132812 163.183594 221.527344 C 168.609375 218.070312 182.421875 210.667969 188.34375 208.6875 C 186.863281 212.144531 183.90625 214.613281 181.929688 217.574219 C 178.972656 222.019531 172.554688 227.445312 172.554688 232.878906 C 177.488281 228.433594 183.410156 224.488281 189.328125 221.527344 C 186.863281 226.953125 181.929688 231.398438 180.449219 238.308594 C 184.394531 234.359375 191.796875 232.382812 196.730469 230.902344 L 196.238281 231.398438 C 195.742188 231.890625 190.316406 235.839844 186.371094 240.28125 C 189.820312 240.28125 187.351562 239.789062 191.796875 240.773438 L 194.261719 240.773438 C 193.273438 241.273438 191.796875 242.253906 190.316406 242.75 C 188.34375 243.738281 185.875 245.21875 183.90625 246.207031 C 193.273438 258.050781 204.621094 267.925781 217.941406 274.339844 C 235.207031 282.734375 253.953125 285.699219 273.191406 283.230469 C 273.191406 282.242188 272.699219 281.253906 272.210938 279.773438 C 271.71875 278.292969 271.214844 277.304688 271.214844 275.824219 C 277.632812 263.976562 274.183594 243.242188 290.949219 234.851562 C 302.300781 228.933594 303.28125 225.964844 316.117188 228.433594 C 323.015625 229.914062 338.316406 234.851562 345.214844 233.371094 C 351.632812 229.914062 355.082031 227.945312 361.007812 223.996094 C 367.917969 225.476562 370.382812 224.488281 372.851562 221.03125 C 370.382812 224.488281 377.28125 208.199219 380.25 202.273438 Z M 379.257812 198.328125 "/>
</clipPath>
<clipPath id="clip7">
  <path d="M 266 112 L 345 112 L 345 285 L 266 285 Z M 266 112 "/>
</clipPath>
<clipPath id="clip8">
  <path d="M 379.257812 198.328125 C 376.300781 189.933594 377.28125 175.621094 375.808594 173.644531 C 366.433594 160.8125 332.882812 158.835938 317.59375 142.050781 C 320.058594 133.660156 314.632812 127.242188 309.210938 121.8125 C 300.816406 115.890625 289.476562 118.355469 280.59375 120.824219 C 270.726562 118.851562 261.351562 114.902344 251.488281 112.433594 C 229.78125 109.964844 208.074219 125.269531 208.074219 125.269531 C 192.289062 135.140625 168.117188 155.875 156.277344 167.722656 C 159.238281 168.214844 162.195312 165.746094 165.652344 165.746094 L 188.34375 159.824219 C 178.972656 167.722656 159.238281 181.050781 153.320312 191.910156 C 160.222656 189.441406 175.023438 181.542969 182.421875 180.554688 C 176.011719 185.988281 162.6875 196.84375 158.25 203.753906 C 158.742188 204.25 158.25 204.742188 158.25 205.234375 C 163.675781 202.273438 176.996094 194.375 183.410156 193.882812 C 176.996094 200.296875 165.652344 213.132812 163.183594 221.527344 C 168.609375 218.070312 182.421875 210.667969 188.34375 208.6875 C 186.863281 212.144531 183.90625 214.613281 181.929688 217.574219 C 178.972656 222.019531 172.554688 227.445312 172.554688 232.878906 C 177.488281 228.433594 183.410156 224.488281 189.328125 221.527344 C 186.863281 226.953125 181.929688 231.398438 180.449219 238.308594 C 184.394531 234.359375 191.796875 232.382812 196.730469 230.902344 L 196.238281 231.398438 C 195.742188 231.890625 190.316406 235.839844 186.371094 240.28125 C 189.820312 240.28125 187.351562 239.789062 191.796875 240.773438 L 194.261719 240.773438 C 193.273438 241.273438 191.796875 242.253906 190.316406 242.75 C 188.34375 243.738281 185.875 245.21875 183.90625 246.207031 C 193.273438 258.050781 204.621094 267.925781 217.941406 274.339844 C 235.207031 282.734375 253.953125 285.699219 273.191406 283.230469 C 273.191406 282.242188 272.699219 281.253906 272.210938 279.773438 C 271.71875 278.292969 271.214844 277.304688 271.214844 275.824219 C 277.632812 263.976562 274.183594 243.242188 290.949219 234.851562 C 302.300781 228.933594 303.28125 225.964844 316.117188 228.433594 C 323.015625 229.914062 338.316406 234.851562 345.214844 233.371094 C 351.632812 229.914062 355.082031 227.945312 361.007812 223.996094 C 367.917969 225.476562 370.382812 224.488281 372.851562 221.03125 C 370.382812 224.488281 377.28125 208.199219 380.25 202.273438 Z M 379.257812 198.328125 "/>
</clipPath>
<clipPath id="clip9">
  <path d="M 344 112 L 381 112 L 381 285 L 344 285 Z M 344 112 "/>
</clipPath>
<clipPath id="clip10">
  <path d="M 379.257812 198.328125 C 376.300781 189.933594 377.28125 175.621094 375.808594 173.644531 C 366.433594 160.8125 332.882812 158.835938 317.59375 142.050781 C 320.058594 133.660156 314.632812 127.242188 309.210938 121.8125 C 300.816406 115.890625 289.476562 118.355469 280.59375 120.824219 C 270.726562 118.851562 261.351562 114.902344 251.488281 112.433594 C 229.78125 109.964844 208.074219 125.269531 208.074219 125.269531 C 192.289062 135.140625 168.117188 155.875 156.277344 167.722656 C 159.238281 168.214844 162.195312 165.746094 165.652344 165.746094 L 188.34375 159.824219 C 178.972656 167.722656 159.238281 181.050781 153.320312 191.910156 C 160.222656 189.441406 175.023438 181.542969 182.421875 180.554688 C 176.011719 185.988281 162.6875 196.84375 158.25 203.753906 C 158.742188 204.25 158.25 204.742188 158.25 205.234375 C 163.675781 202.273438 176.996094 194.375 183.410156 193.882812 C 176.996094 200.296875 165.652344 213.132812 163.183594 221.527344 C 168.609375 218.070312 182.421875 210.667969 188.34375 208.6875 C 186.863281 212.144531 183.90625 214.613281 181.929688 217.574219 C 178.972656 222.019531 172.554688 227.445312 172.554688 232.878906 C 177.488281 228.433594 183.410156 224.488281 189.328125 221.527344 C 186.863281 226.953125 181.929688 231.398438 180.449219 238.308594 C 184.394531 234.359375 191.796875 232.382812 196.730469 230.902344 L 196.238281 231.398438 C 195.742188 231.890625 190.316406 235.839844 186.371094 240.28125 C 189.820312 240.28125 187.351562 239.789062 191.796875 240.773438 L 194.261719 240.773438 C 193.273438 241.273438 191.796875 242.253906 190.316406 242.75 C 188.34375 243.738281 185.875 245.21875 183.90625 246.207031 C 193.273438 258.050781 204.621094 267.925781 217.941406 274.339844 C 235.207031 282.734375 253.953125 285.699219 273.191406 283.230469 C 273.191406 282.242188 272.699219 281.253906 272.210938 279.773438 C 271.71875 278.292969 271.214844 277.304688 271.214844 275.824219 C 277.632812 263.976562 274.183594 243.242188 290.949219 234.851562 C 302.300781 228.933594 303.28125 225.964844 316.117188 228.433594 C 323.015625 229.914062 338.316406 234.851562 345.214844 233.371094 C 351.632812 229.914062 355.082031 227.945312 361.007812 223.996094 C 367.917969 225.476562 370.382812 224.488281 372.851562 221.03125 C 370.382812 224.488281 377.28125 208.199219 380.25 202.273438 Z M 379.257812 198.328125 "/>
</clipPath>
</defs>
<g id="surface1">
<path style=" stroke:none;fill-rule:nonzero;fill:url(#linear0);" d="M 345.214844 53.691406 L 345.214844 53.199219 L 345.214844 53.691406 L 344.726562 53.199219 L 344.726562 53.691406 L 266.285156 84.792969 L 187.355469 53.691406 L 187.355469 53.199219 L 186.863281 53.691406 L 186.863281 53.199219 L 186.863281 53.691406 L 107.933594 85.285156 L 107.933594 332.597656 L 186.863281 302.480469 L 266.285156 332.597656 L 345.214844 302.480469 L 424.648438 332.597656 L 424.648438 85.285156 Z M 345.214844 53.691406 "/>
<path style=" stroke:none;fill-rule:nonzero;fill:url(#linear1);" d="M 107.933594 85.285156 L 107.933594 332.597656 L 187.355469 302.480469 L 187.355469 53.199219 Z M 107.933594 85.285156 "/>
<path style=" stroke:none;fill-rule:nonzero;fill:url(#linear2);" d="M 266.285156 85.285156 L 266.285156 332.597656 L 186.863281 302.480469 L 186.863281 53.199219 Z M 266.285156 85.285156 "/>
<path style=" stroke:none;fill-rule:nonzero;fill:url(#linear3);" d="M 266.285156 85.285156 L 266.285156 332.597656 L 345.214844 302.480469 L 345.214844 53.199219 Z M 266.285156 85.285156 "/>
<path style=" stroke:none;fill-rule:nonzero;fill:url(#linear4);" d="M 424.648438 85.285156 L 424.648438 332.597656 L 344.726562 302.480469 L 344.726562 53.199219 Z M 424.648438 85.285156 "/>
<g clip-path="url(#clip1)" clip-rule="nonzero">
<g clip-path="url(#clip2)" clip-rule="nonzero">
<path style=" stroke:none;fill-rule:nonzero;fill:rgb(100%,100%,100%);fill-opacity:1;" d="M 266.285156 99.601562 C 347.480469 99.601562 413.300781 144.242188 413.300781 199.316406 C 413.300781 254.386719 347.480469 299.023438 266.285156 299.023438 C 185.101562 299.023438 119.277344 254.386719 119.277344 199.316406 C 119.277344 144.242188 185.101562 99.601562 266.285156 99.601562 Z M 266.285156 99.601562 "/>
</g>
</g>
<g clip-path="url(#clip3)" clip-rule="nonzero">
<g clip-path="url(#clip4)" clip-rule="nonzero">
<path style=" stroke:none;fill-rule:nonzero;fill:rgb(94.901961%,94.901961%,94.901961%);fill-opacity:1;" d="M 109.90625 89.726562 L 109.90625 340 L 188.34375 308.898438 L 188.34375 58.132812 Z M 109.90625 89.726562 "/>
</g>
</g>
<g clip-path="url(#clip5)" clip-rule="nonzero">
<g clip-path="url(#clip6)" clip-rule="nonzero">
<path style=" stroke:none;fill-rule:nonzero;fill:rgb(100%,100%,100%);fill-opacity:1;" d="M 266.785156 89.726562 L 266.785156 340 L 187.851562 308.898438 L 187.851562 58.132812 Z M 266.785156 89.726562 "/>
</g>
</g>
<g clip-path="url(#clip7)" clip-rule="nonzero">
<g clip-path="url(#clip8)" clip-rule="nonzero">
<path style=" stroke:none;fill-rule:nonzero;fill:rgb(94.901961%,94.901961%,94.901961%);fill-opacity:1;" d="M 266.785156 89.726562 L 266.785156 340 L 344.726562 308.898438 L 344.726562 58.132812 Z M 266.785156 89.726562 "/>
</g>
</g>
<g clip-path="url(#clip9)" clip-rule="nonzero">
<g clip-path="url(#clip10)" clip-rule="nonzero">
<path style=" stroke:none;fill-rule:nonzero;fill:rgb(100%,100%,100%);fill-opacity:1;" d="M 423.65625 89.726562 L 423.65625 340 L 344.726562 308.898438 L 344.726562 58.132812 Z M 423.65625 89.726562 "/>
</g>
</g>
</g>
</svg>
